<mxfile host="65bd71144e">
    <diagram id="OKgdaDxL7uxaJOUvpWbn" name="Page-1">
        <mxGraphModel dx="662" dy="480" grid="1" gridSize="10" guides="1" tooltips="1" connect="1" arrows="1" fold="1" page="1" pageScale="1" pageWidth="850" pageHeight="1100" math="0" shadow="0">
            <root>
                <mxCell id="0"/>
                <mxCell id="1" parent="0"/>
                <mxCell id="2" value="venues.js" style="whiteSpace=wrap;html=1;" vertex="1" parent="1">
                    <mxGeometry x="200" y="120" width="80" height="40" as="geometry"/>
                </mxCell>
                <mxCell id="3" value="main.js" style="whiteSpace=wrap;html=1;" vertex="1" parent="1">
                    <mxGeometry x="70" y="120" width="80" height="40" as="geometry"/>
                </mxCell>
                <mxCell id="4" value="bands.js" style="whiteSpace=wrap;html=1;" vertex="1" parent="1">
                    <mxGeometry x="330" y="120" width="80" height="40" as="geometry"/>
                </mxCell>
                <mxCell id="5" value="" style="whiteSpace=wrap;html=1;" vertex="1" parent="1">
                    <mxGeometry x="460" y="120" width="80" height="40" as="geometry"/>
                </mxCell>
                <mxCell id="6" value="" style="whiteSpace=wrap;html=1;" vertex="1" parent="1">
                    <mxGeometry x="590" y="120" width="80" height="40" as="geometry"/>
                </mxCell>
                <mxCell id="7" value="" style="endArrow=classic;html=1;fontSize=19;fontColor=#124A18;" edge="1" parent="1">
                    <mxGeometry relative="1" as="geometry">
                        <mxPoint x="109.5" y="160" as="sourcePoint"/>
                        <mxPoint x="110" y="662" as="targetPoint"/>
                    </mxGeometry>
                </mxCell>
                <mxCell id="8" value="" style="endArrow=classic;html=1;fontSize=19;fontColor=#124A18;" edge="1" parent="1">
                    <mxGeometry relative="1" as="geometry">
                        <mxPoint x="239.5" y="160" as="sourcePoint"/>
                        <mxPoint x="240" y="662" as="targetPoint"/>
                    </mxGeometry>
                </mxCell>
                <mxCell id="9" value="" style="endArrow=classic;html=1;fontSize=19;fontColor=#124A18;" edge="1" parent="1">
                    <mxGeometry relative="1" as="geometry">
                        <mxPoint x="369.5" y="160" as="sourcePoint"/>
                        <mxPoint x="370" y="662" as="targetPoint"/>
                    </mxGeometry>
                </mxCell>
                <mxCell id="10" value="" style="endArrow=classic;html=1;fontSize=19;fontColor=#124A18;" edge="1" parent="1">
                    <mxGeometry relative="1" as="geometry">
                        <mxPoint x="499.5" y="160" as="sourcePoint"/>
                        <mxPoint x="500" y="662" as="targetPoint"/>
                    </mxGeometry>
                </mxCell>
                <mxCell id="11" value="" style="endArrow=classic;html=1;fontSize=19;fontColor=#124A18;" edge="1" parent="1">
                    <mxGeometry relative="1" as="geometry">
                        <mxPoint x="630" y="160" as="sourcePoint"/>
                        <mxPoint x="630.5" y="662" as="targetPoint"/>
                    </mxGeometry>
                </mxCell>
                <mxCell id="12" value="" style="endArrow=classic;html=1;fontSize=19;fontColor=#124A18;" edge="1" parent="1">
                    <mxGeometry relative="1" as="geometry">
                        <mxPoint x="110" y="200" as="sourcePoint"/>
                        <mxPoint x="200" y="200" as="targetPoint"/>
                    </mxGeometry>
                </mxCell>
                <mxCell id="13" value="invoke venues()" style="text;strokeColor=none;align=center;fillColor=none;html=1;verticalAlign=middle;whiteSpace=wrap;rounded=0;" vertex="1" parent="1">
                    <mxGeometry x="130" y="170" width="60" height="30" as="geometry"/>
                </mxCell>
                <mxCell id="14" value="" style="endArrow=classic;html=1;fontSize=19;fontColor=#124A18;" edge="1" parent="1">
                    <mxGeometry relative="1" as="geometry">
                        <mxPoint x="240" y="220" as="sourcePoint"/>
                        <mxPoint x="330" y="220" as="targetPoint"/>
                    </mxGeometry>
                </mxCell>
                <mxCell id="15" value="invokes bands&amp;nbsp;" style="text;strokeColor=none;align=center;fillColor=none;html=1;verticalAlign=middle;whiteSpace=wrap;rounded=0;" vertex="1" parent="1">
                    <mxGeometry x="250" y="180" width="60" height="30" as="geometry"/>
                </mxCell>
            </root>
        </mxGraphModel>
    </diagram>
</mxfile>